<svg xmlns="http://www.w3.org/2000/svg" xmlns:xlink="http://www.w3.org/1999/xlink" width="180" zoomAndPan="magnify" viewBox="0 0 135 135.000003" height="180" preserveAspectRatio="xMidYMid meet" version="1.0"><defs><g/><clipPath id="5292017ba8"><path d="M 0.496094 0 L 134.503906 0 L 134.503906 134.007812 L 0.496094 134.007812 Z M 0.496094 0 " clip-rule="nonzero"/></clipPath><clipPath id="7df931c285"><path d="M 0.496094 6.089844 L 134.503906 6.089844 L 134.503906 127.917969 L 0.496094 127.917969 Z M 0.496094 6.089844 " clip-rule="nonzero"/></clipPath><clipPath id="ac4b247432"><path d="M 132.71875 31.832031 C 128.480469 17.4375 114.796875 6.089844 98.617188 6.089844 C 85.03125 6.089844 73.230469 13.757812 67.261719 25.015625 C 61.296875 13.757812 49.496094 6.089844 35.910156 6.089844 C 18.984375 6.089844 4.179688 17.4375 1.273438 33.910156 C -6.09375 75.675781 40.617188 108.367188 67.367188 127.917969 C 92.097656 109.84375 144.839844 72.988281 132.71875 31.832031 Z M 132.71875 31.832031 " clip-rule="nonzero"/></clipPath><clipPath id="cb96fc9b0e"><path d="M 0.496094 0.0898438 L 134.503906 0.0898438 L 134.503906 121.917969 L 0.496094 121.917969 Z M 0.496094 0.0898438 " clip-rule="nonzero"/></clipPath><clipPath id="0f482da729"><path d="M 132.71875 25.832031 C 128.480469 11.4375 114.796875 0.0898438 98.617188 0.0898438 C 85.03125 0.0898438 73.230469 7.757812 67.261719 19.015625 C 61.296875 7.757812 49.496094 0.0898438 35.910156 0.0898438 C 18.984375 0.0898438 4.179688 11.4375 1.273438 27.910156 C -6.09375 69.675781 40.617188 102.367188 67.367188 121.917969 C 92.097656 103.84375 144.839844 66.988281 132.71875 25.832031 Z M 132.71875 25.832031 " clip-rule="nonzero"/></clipPath><clipPath id="a0b2a4895e"><rect x="0" width="135" y="0" height="122"/></clipPath><clipPath id="1c8293e515"><rect x="0" width="97" y="0" height="91"/></clipPath></defs><g clip-path="url(#5292017ba8)"><path fill="#ffffff" d="M 0.496094 0 L 134.503906 0 L 134.503906 134.007812 L 0.496094 134.007812 Z M 0.496094 0 " fill-opacity="1" fill-rule="nonzero"/><path fill="#1a365d" d="M 0.496094 0 L 134.503906 0 L 134.503906 134.007812 L 0.496094 134.007812 Z M 0.496094 0 " fill-opacity="1" fill-rule="nonzero"/></g><g clip-path="url(#7df931c285)"><g clip-path="url(#ac4b247432)"><g transform="matrix(1, 0, 0, 1, 0.000000000000000056, 6)"><g clip-path="url(#a0b2a4895e)"><g clip-path="url(#cb96fc9b0e)"><g clip-path="url(#0f482da729)"><path fill="#f97316" d="M 0.496094 0.0898438 L 134.695312 0.0898438 L 134.695312 121.917969 L 0.496094 121.917969 Z M 0.496094 0.0898438 " fill-opacity="1" fill-rule="nonzero"/></g></g></g></g></g></g><g transform="matrix(1, 0, 0, 1, 19, 12)"><g clip-path="url(#1c8293e515)"><g fill="#ffffff" fill-opacity="1"><g transform="translate(0.42938, 72.472563)"><g><path d="M 4.65625 0 L 4.65625 -53.765625 L 25.6875 -53.765625 C 29.757812 -53.765625 33.238281 -53 36.125 -51.46875 C 39.007812 -49.945312 41.210938 -47.832031 42.734375 -45.125 C 44.265625 -42.414062 45.03125 -39.28125 45.03125 -35.71875 C 45.03125 -32.164062 44.253906 -29.039062 42.703125 -26.34375 C 41.148438 -23.644531 38.914062 -21.535156 36 -20.015625 C 33.09375 -18.503906 29.585938 -17.75 25.484375 -17.75 L 11.65625 -17.75 L 11.65625 -26.734375 L 24 -26.734375 C 26.164062 -26.734375 27.972656 -27.113281 29.421875 -27.875 C 30.878906 -28.632812 31.96875 -29.6875 32.6875 -31.03125 C 33.414062 -32.382812 33.78125 -33.945312 33.78125 -35.71875 C 33.78125 -37.53125 33.414062 -39.097656 32.6875 -40.421875 C 31.96875 -41.742188 30.878906 -42.773438 29.421875 -43.515625 C 27.972656 -44.265625 26.15625 -44.640625 23.96875 -44.640625 L 15.703125 -44.640625 L 15.703125 0 Z M 4.65625 0 "/></g></g></g><g fill="#ffffff" fill-opacity="1"><g transform="translate(41.929251, 72.472563)"><g><path d="M 1.4375 0 L 19.953125 -53.765625 L 34.3125 -53.765625 L 53.1875 0 L 40.921875 0 L 32.328125 -25.984375 C 31.296875 -29.347656 30.242188 -32.984375 29.171875 -36.890625 C 28.109375 -40.804688 26.972656 -45.109375 25.765625 -49.796875 L 28.296875 -49.796875 C 27.117188 -45.109375 26.023438 -40.796875 25.015625 -36.859375 C 24.003906 -32.929688 22.992188 -29.304688 21.984375 -25.984375 L 13.5625 0 Z M 13.03125 -12.3125 L 13.03125 -21 L 41.609375 -21 L 41.609375 -12.3125 Z M 13.03125 -12.3125 "/></g></g></g></g></g></svg>